# xmcd
#
# Track frame offsets:
#	150
#	21387
#	36786
#	52231
#	64554
#	79642
#	95351
#	110890
#	124214
#	144294
#	160189
#	177374
#	196796
#	211773
#	224562
#	236954
#	271036
#
# Disc length: 4438 seconds
#
# Revision: 1
# Processed by: cddbd v1.5.2PL0 Copyright (c) Steve Scherf et al.
# Submitted via: audiograbber 1.83.01
#
DISCID=f6115411
DTITLE=Captain Luke - Old BLack Buck
DYEAR=2007
DGENRE=Blues
TTITLE0=Polk Salad Annie
TTITLE1=One Of These Days
TTITLE2=Angels Of Mercy
TTITLE3=Chokin' Kind
TTITLE4=Serve Me Right
TTITLE5=Old Black Buck
TTITLE6=I'm A King Bee
TTITLE7=Hotel Hapiness
TTITLE8=Still Water
TTITLE9=Waiter
TTITLE10=Put On Your Red Dress
TTITLE11=I Got You Wanted
TTITLE12=Careless Love
TTITLE13=Short Haired Woman Blues
TTITLE14=It' Just A Matter Of Time
TTITLE15=A Rainy Night In Georgia
TTITLE16=Daten-CD
EXTD=Featuring Cool John Ferguson
EXTT0=
EXTT1=
EXTT2=
EXTT3=
EXTT4=
EXTT5=
EXTT6=
EXTT7=
EXTT8=
EXTT9=
EXTT10=
EXTT11=
EXTT12=
EXTT13=
EXTT14=
EXTT15=
EXTT16=
PLAYORDER=
